<?xml version="1.0" encoding="utf-8"?>
<!-- Generator: Adobe Illustrator 23.0.6, SVG Export Plug-In . SVG Version: 6.00 Build 0)  -->
<svg version="1.1" id="Слой_1" xmlns="http://www.w3.org/2000/svg" xmlns:xlink="http://www.w3.org/1999/xlink" x="0px" y="0px"
	 viewBox="0 0 34.2 8.4" style="enable-background:new 0 0 34.2 8.4;" xml:space="preserve">
<g>
	<path d="M1,8.4V1.1H0V0h2.1v6.1l3-6.1h1.1v8.4H5.1V2.3l-3,6.1H1z"/>
	<path d="M8.4,1.1h-1V0h2.1v3.6h3V0h1.1v8.4h-1.1V4.7h-3v3.7H8.4V1.1z"/>
	<path d="M20.9,8.4h-5V0h5v1.1H17v2.5h2.8v1.1H17v2.5h3.9V8.4z"/>
	<path d="M26.2,2.4c0-0.4-0.1-0.7-0.4-0.9c-0.2-0.2-0.5-0.4-0.9-0.4h-3.7V0H25c0.3,0,0.6,0.1,0.9,0.2s0.5,0.3,0.8,0.5
		c0.2,0.2,0.4,0.5,0.5,0.8c0.1,0.3,0.2,0.6,0.2,0.9S27.3,3,27.2,3.3s-0.3,0.5-0.5,0.8c-0.2,0.2-0.5,0.4-0.8,0.5S25.3,4.8,25,4.8
		h-1.6v3.6h-1.1V3.7H25c0.4,0,0.7-0.1,0.9-0.4C26.1,3.1,26.2,2.8,26.2,2.4z"/>
	<path d="M28.9,8.4V1.1h-1V0h2.1v6.1l3-6.1h1.1v8.4h-1.1V2.3l-3,6.1H28.9z"/>
</g>
</svg>
